<?xml version="1.0" standalone="no"?><!DOCTYPE svg PUBLIC "-//W3C//DTD SVG 1.1//EN" "http://www.w3.org/Graphics/SVG/1.1/DTD/svg11.dtd"><svg t="1525404010114" class="icon" style="" viewBox="0 0 1024 1024" version="1.1" xmlns="http://www.w3.org/2000/svg" p-id="7768" xmlns:xlink="http://www.w3.org/1999/xlink" width="20" height="20"><defs><style type="text/css"></style></defs><path d="M109.6 176.8h224.8c30.4 0 55.2 23.2 80 39.2 23.2 16.8 42.4 32.8 71.2 32.8h199.2c8.8 0 32 0.8 47.2 13.6 12 10.4 12 29.6 12 29.6H623.2c-47.2 0-88 61.6-104.8 61.6H268.8c-49.6 0-80.8 39.2-90.4 86.4l-76 350.4c-2.4 12-8 24.8-22.4 26.4-16.8-0.8-30.4-13.6-30.4-29.6V223.2s4.8-19.2 16-31.2c13.6-15.2 35.2-15.2 44-15.2z" fill="#42a8f7" p-id="7769"></path><path d="M960.8 346.4c-20-17.6-51.2-20.8-62.4-20.8H619.2c-12 2.4-45.6 24-55.2 32.8-19.2 18.4-37.6 29.6-67.2 29.6H245.6c-22.4 0-30.4 33.6-32.8 44 0 0-79.2 352.8-84 364.8-4.8 15.2-6.4 19.2-16 30.4h748c24.8 0 32-38.4 32-42.4l75.2-396c1.6-0.8 7.2-29.6-7.2-42.4zM816 644H592c-12.8 0-24-10.4-24-24s10.4-24 24-24h224c12.8 0 23.2 10.4 23.2 24s-10.4 24-23.2 24z m20.8-104.8h-224c-12.8 0-24-10.4-24-24 0-12.8 10.4-23.2 24-23.2h224c12.8 0 23.2 10.4 23.2 23.2 0 13.6-10.4 24-23.2 24z" fill="#42a8f7" p-id="7770"></path></svg>
