<?xml version="1.0" standalone="no"?><!DOCTYPE svg PUBLIC "-//W3C//DTD SVG 1.1//EN" "http://www.w3.org/Graphics/SVG/1.1/DTD/svg11.dtd"><svg t="1525337106472" class="icon" style="" viewBox="0 0 1024 1024" version="1.1" xmlns="http://www.w3.org/2000/svg" p-id="2994" xmlns:xlink="http://www.w3.org/1999/xlink" width="100" height="100"><defs><style type="text/css"></style></defs><path d="M607.001 185.968c0 44.184-35.816 80-80 80s-80-35.816-80-80c0-44.184 35.816-80 80-80s80 35.818 80 80zM527.001 778.032c-38.66 0-70 31.34-70 70s31.34 70 70 70 70-31.34 70-70-31.34-70-70-70zM858.032 566.999c-27.615 0-50-22.382-50-50 0-27.615 22.384-50 50-50 27.62 0 50 22.384 50 50 0 27.618-22.386 50-50 50zM275.968 517c0-44.184-35.816-80-80-80s-80 35.816-80 80 35.816 80 80 80c44.184 0 80-35.816 80-80zM349.496 226.358c31.242 31.242 31.242 81.894 0 113.136-31.244 31.242-81.896 31.242-113.138 0-31.244-31.242-31.244-81.894 0-113.138 31.242-31.242 81.894-31.242 113.138 0.002zM718.65 708.649c-23.434 23.432-23.434 61.42-0.002 84.852s61.42 23.431 84.854 0c23.432-23.432 23.431-61.42 0-84.851-23.432-23.434-61.42-23.434-84.851 0zM789.363 311.21c-15.621 15.62-40.95 15.62-56.566 0-15.626-15.624-15.626-40.95 0-56.569 15.622-15.624 40.948-15.624 56.566 0 15.62 15.62 15.62 40.949 0 56.569zM349.496 694.506c-31.244-31.244-81.894-31.242-113.138 0-31.242 31.242-31.244 81.894 0 113.134 31.242 31.242 81.894 31.242 113.136 0 31.244-31.24 31.244-81.892 0.002-113.134z" fill="#8a8a8a" p-id="2995"></path></svg>
